<?xml version="1.0"?>
<svg xmlns="http://www.w3.org/2000/svg" xmlns:xlink="http://www.w3.org/1999/xlink" xmlns:svgjs="http://svgjs.com/svgjs" version="1.1" width="512" height="512" x="0" y="0" viewBox="0 0 411.726 411.726" style="enable-background:new 0 0 512 512" xml:space="preserve" class=""><g>
<g xmlns="http://www.w3.org/2000/svg">
	<g>
		<path d="M407.04,34.087H5.12c-3.072,0-5.12,2.048-5.12,5.12v301.056c0,3.072,2.048,5.12,5.12,5.12h20.992v27.136    c0,3.072,2.048,5.12,5.12,5.12h67.584c3.072,0,5.12-2.048,5.12-5.12v-27.136h203.776v27.136c0,3.072,2.048,5.12,5.12,5.12h67.584    c3.072,0,5.12-2.048,5.12-5.12v-27.136h20.992c3.072,0,5.12-2.048,5.12-5.12V39.207C412.16,36.135,410.112,34.087,407.04,34.087z     M9.728,44.327h391.68v44.999c-5.305-0.587-8.304-2.567-11.776-4.551c-4.608-3.072-10.24-6.656-20.992-6.656    s-15.872,3.584-20.992,6.656c-4.608,2.56-7.68,5.12-15.36,5.12s-11.264-2.048-15.36-5.12c-4.608-3.072-10.24-6.656-20.992-6.656    s-15.872,3.584-20.992,6.656c-4.608,2.56-7.68,5.12-15.36,5.12c-7.68,0-11.264-2.048-15.36-5.12    c-4.608-3.072-10.24-6.656-20.992-6.656c-10.752,0-15.872,3.584-20.992,6.656c-4.608,2.56-7.68,5.12-15.36,5.12    s-11.264-2.048-15.36-5.12c-4.608-3.072-10.24-6.656-20.992-6.656c-10.752,0-15.872,3.584-20.992,6.656    c-4.608,2.56-7.68,5.12-15.36,5.12s-11.264-2.048-15.36-5.12c-4.608-3.072-10.24-6.656-20.992-6.656    c-10.752,0-15.872,3.584-20.992,6.656c-4.608,2.56-7.68,5.12-15.36,5.12c-7.68,0-11.264-2.048-15.36-5.12    c-4.096-2.56-8.704-5.632-16.384-6.144V44.327z M36.352,367.399v-22.016h57.344v22.016H36.352z M317.952,367.399v-22.016h57.344    v22.016H317.952z M401.92,334.631H10.24v-52.224h86.528h218.624h86.528V334.631z M402.944,272.167h-1.024h-70.656    c9.728-9.728,12.8-20.992,12.8-22.016c0.512-2.56-1.024-5.632-3.584-6.144c-2.56-0.512-5.632,1.024-6.144,3.584    c0,0-3.584,11.776-12.8,19.968v-38.912c0-3.072-2.048-5.12-5.12-5.12c-3.072,0-5.12,2.048-5.12,5.12v39.936    c-10.24-8.192-13.824-20.48-13.824-20.48c-1.024-2.56-3.584-4.096-6.144-3.584c-2.56,0.512-4.096,3.584-3.584,6.144    c0,0.512,3.584,12.288,12.8,22.016H112.64c9.728-9.728,12.8-20.992,12.8-22.016c0.512-2.56-1.024-5.632-3.584-6.144    c-2.56-0.512-5.632,1.024-6.144,3.584c0,0-3.584,11.776-12.8,19.968v-38.912c0-3.072-2.048-5.12-5.12-5.12    c-3.072,0-5.12,2.048-5.12,5.12v39.936c-10.24-8.192-13.824-20.48-13.824-20.48c-1.024-2.56-3.584-4.096-6.144-3.584    c-2.56,0.512-4.096,3.584-3.584,6.144c0,0.512,3.584,12.288,12.8,22.016H10.24V88.359c4.608,0.512,7.68,2.56,11.264,4.608    c4.608,3.072,10.24,6.656,20.992,6.656c10.752,0,15.872-3.584,20.992-6.656c4.608-2.56,7.68-5.12,15.36-5.12    c7.68,0,11.264,2.048,15.36,5.12c4.608,3.072,10.24,6.656,20.992,6.656c10.752,0,15.872-3.584,20.992-6.656    c4.608-2.56,7.68-5.12,15.36-5.12s11.264,2.048,15.36,5.12c4.608,3.072,10.24,6.656,20.992,6.656    c10.752,0,15.872-3.584,20.992-6.656c4.608-2.56,7.68-5.12,15.36-5.12s11.264,2.048,15.36,5.12    c4.608,3.072,10.24,6.656,20.992,6.656c10.752,0,15.872-3.584,20.992-6.656c4.608-2.56,7.68-5.12,15.36-5.12    s11.264,2.048,15.36,5.12c4.608,3.072,10.24,6.656,20.992,6.656c10.752,0,15.872-3.584,20.992-6.656    c4.608-2.56,7.68-5.12,15.36-5.12s11.264,2.048,15.36,5.12c4.608,2.56,9.216,5.632,17.92,6.144V272.167z" fill="#ffffff" data-original="#000000" style="" class=""/>
	</g>
</g>
<g xmlns="http://www.w3.org/2000/svg">
	<g>
		<path d="M277.504,184.103c0,0-10.24-36.864-50.688-36.864c-1.536,0-32.768,1.536-52.736,27.136    c-5.12-11.776-15.36-29.184-33.28-27.136c-2.56,0.512-4.608,2.56-4.608,5.12s0,22.016,9.216,33.28    c-9.216,11.264-9.216,30.72-9.216,33.28s2.048,4.608,4.608,5.12c17.92,2.048,28.672-15.36,33.28-27.136    c19.456,24.576,49.152,27.136,52.224,27.136c0.512,0,2.048,0,3.584,0c10.24,0,36.352-3.584,47.616-36.864    C278.016,186.151,278.016,185.127,277.504,184.103z M146.432,213.287c0.512-7.68,3.072-18.944,8.704-23.552    c1.536-1.024,2.048-2.56,2.048-4.096s-0.512-3.072-2.048-4.096c-6.144-4.608-8.192-15.872-8.704-23.552    c12.288,3.072,18.944,22.528,20.992,27.648C165.376,190.759,158.72,210.215,146.432,213.287z M227.328,213.799h-0.512    c-0.512,0-31.744-1.536-48.64-28.16c16.896-26.624,48.128-28.16,48.128-28.16c28.672,0,38.4,22.016,40.448,28.16    C256,217.383,228.864,213.799,227.328,213.799z" fill="#ffffff" data-original="#000000" style="" class=""/>
	</g>
</g>
<g xmlns="http://www.w3.org/2000/svg">
	<g>
		<circle cx="251.392" cy="178.471" r="3.584" fill="#ffffff" data-original="#000000" style="" class=""/>
	</g>
</g>
<g xmlns="http://www.w3.org/2000/svg">
	<g>
		<circle cx="136.704" cy="298.791" r="7.168" fill="#ffffff" data-original="#000000" style="" class=""/>
	</g>
</g>
<g xmlns="http://www.w3.org/2000/svg">
	<g>
		<circle cx="272.896" cy="315.175" r="7.168" fill="#ffffff" data-original="#000000" style="" class=""/>
	</g>
</g>
<g xmlns="http://www.w3.org/2000/svg">
	<g>
		<circle cx="380.928" cy="315.175" r="7.168" fill="#ffffff" data-original="#000000" style="" class=""/>
	</g>
</g>
<g xmlns="http://www.w3.org/2000/svg">
	<g>
		<circle cx="216.064" cy="310.055" r="7.168" fill="#ffffff" data-original="#000000" style="" class=""/>
	</g>
</g>
<g xmlns="http://www.w3.org/2000/svg">
	<g>
		<circle cx="116.736" cy="317.223" r="7.168" fill="#ffffff" data-original="#000000" style="" class=""/>
	</g>
</g>
<g xmlns="http://www.w3.org/2000/svg">
	<g>
		<circle cx="29.184" cy="317.223" r="7.168" fill="#ffffff" data-original="#000000" style="" class=""/>
	</g>
</g>
<g xmlns="http://www.w3.org/2000/svg">
	<g>
		<circle cx="66.048" cy="297.255" r="7.168" fill="#ffffff" data-original="#000000" style="" class=""/>
	</g>
</g>
<g xmlns="http://www.w3.org/2000/svg">
	<g>
		<circle cx="242.688" cy="297.255" r="7.168" fill="#ffffff" data-original="#000000" style="" class=""/>
	</g>
</g>
<g xmlns="http://www.w3.org/2000/svg">
	<g>
		<circle cx="323.584" cy="298.791" r="7.168" fill="#ffffff" data-original="#000000" style="" class=""/>
	</g>
</g>
<g xmlns="http://www.w3.org/2000/svg">
	<g>
		<circle cx="94.72" cy="298.791" r="5.632" fill="#ffffff" data-original="#000000" style="" class=""/>
	</g>
</g>
<g xmlns="http://www.w3.org/2000/svg">
	<g>
		<circle cx="72.192" cy="322.343" r="5.632" fill="#ffffff" data-original="#000000" style="" class=""/>
	</g>
</g>
<g xmlns="http://www.w3.org/2000/svg">
	<g>
		<circle cx="242.688" cy="322.343" r="5.632" fill="#ffffff" data-original="#000000" style="" class=""/>
	</g>
</g>
<g xmlns="http://www.w3.org/2000/svg">
	<g>
		<circle cx="339.968" cy="322.343" r="5.632" fill="#ffffff" data-original="#000000" style="" class=""/>
	</g>
</g>
<g xmlns="http://www.w3.org/2000/svg">
	<g>
		<circle cx="364.032" cy="294.183" r="5.632" fill="#ffffff" data-original="#000000" style="" class=""/>
	</g>
</g>
<g xmlns="http://www.w3.org/2000/svg">
	<g>
		<circle cx="38.4" cy="297.255" r="5.632" fill="#ffffff" data-original="#000000" style="" class=""/>
	</g>
</g>
<g xmlns="http://www.w3.org/2000/svg">
	<g>
		<circle cx="163.328" cy="320.807" r="5.632" fill="#ffffff" data-original="#000000" style="" class=""/>
	</g>
</g>
<g xmlns="http://www.w3.org/2000/svg">
	<g>
		<circle cx="304.64" cy="317.223" r="5.632" fill="#ffffff" data-original="#000000" style="" class=""/>
	</g>
</g>
<g xmlns="http://www.w3.org/2000/svg">
	<g>
		<circle cx="288.256" cy="299.815" r="5.632" fill="#ffffff" data-original="#000000" style="" class=""/>
	</g>
</g>
<g xmlns="http://www.w3.org/2000/svg">
	<g>
		<circle cx="184.832" cy="302.887" r="5.632" fill="#ffffff" data-original="#000000" style="" class=""/>
	</g>
</g>
<g xmlns="http://www.w3.org/2000/svg">
</g>
<g xmlns="http://www.w3.org/2000/svg">
</g>
<g xmlns="http://www.w3.org/2000/svg">
</g>
<g xmlns="http://www.w3.org/2000/svg">
</g>
<g xmlns="http://www.w3.org/2000/svg">
</g>
<g xmlns="http://www.w3.org/2000/svg">
</g>
<g xmlns="http://www.w3.org/2000/svg">
</g>
<g xmlns="http://www.w3.org/2000/svg">
</g>
<g xmlns="http://www.w3.org/2000/svg">
</g>
<g xmlns="http://www.w3.org/2000/svg">
</g>
<g xmlns="http://www.w3.org/2000/svg">
</g>
<g xmlns="http://www.w3.org/2000/svg">
</g>
<g xmlns="http://www.w3.org/2000/svg">
</g>
<g xmlns="http://www.w3.org/2000/svg">
</g>
<g xmlns="http://www.w3.org/2000/svg">
</g>
</g></svg>
