<?xml version="1.0"?>
<svg xmlns="http://www.w3.org/2000/svg" xmlns:xlink="http://www.w3.org/1999/xlink" xmlns:svgjs="http://svgjs.com/svgjs" version="1.1" width="512" height="512" x="0" y="0" viewBox="0 0 512 512" style="enable-background:new 0 0 512 512" xml:space="preserve" class=""><g><path xmlns="http://www.w3.org/2000/svg" d="m504.484375 0h-496.96875c-4.152344 0-7.515625 3.363281-7.515625 7.515625v496.96875c0 4.152344 3.363281 7.515625 7.515625 7.515625h112.21875c4.152344 0 7.515625-3.363281 7.515625-7.515625 0-8.472656-.238281-16.652344-.699219-24.546875h345.871094c4.152344 0 7.515625-3.363281 7.515625-7.515625v-308.601563c0-4.152343-3.363281-7.515624-7.515625-7.515624-4.148437 0-7.515625 3.363281-7.515625 7.515624v301.085938h-339.542969c-.59375-5.855469-1.324219-11.535156-2.195312-17.03125h116.800781c4.152344 0 7.515625-3.363281 7.515625-7.515625v-160.3125c0-4.148437-3.363281-7.515625-7.515625-7.515625h-58.996094c2.199219-5.445312 4.304688-11.128906 6.320313-17.03125h52.675781c4.152344 0 7.515625-3.367188 7.515625-7.515625v-160.3125c0-4.152344-3.363281-7.515625-7.515625-7.515625h-24.894531c.160156-5.632812.261719-11.3125.3125-17.03125h249.519531v65.125c0 4.152344 3.367188 7.515625 7.515625 7.515625 4.152344 0 7.515625-3.363281 7.515625-7.515625v-65.125h24.546875c4.152344 0 7.515625-3.367188 7.515625-7.515625v-48.09375c0-4.152344-3.363281-7.515625-7.515625-7.515625zm-400.28125 359.703125v17.03125h-89.171875v-17.03125zm-89.171875 137.265625v-105.203125h12.820312c3.703126 5.644531 12.226563 22.351563 12.226563 56.609375 0 4.152344 3.363281 7.515625 7.515625 7.515625 4.148438 0 7.515625-3.363281 7.515625-7.515625 0-28.097656-5.21875-46.003906-10.097656-56.609375h14.902343c3.707032 5.644531 12.226563 22.351563 12.226563 56.609375 0 4.152344 3.363281 7.515625 7.515625 7.515625s7.515625-3.363281 7.515625-7.515625c0-28.097656-5.21875-46.003906-10.097656-56.609375h12.523437c9.980469 17.800781 21.582032 50.167969 22.554688 105.203125zm217.421875-209.40625v145.28125h-112.109375c-3.375-15.355469-7.976562-29.070312-13.796875-41.078125h5.171875c4.152344 0 7.515625-3.363281 7.515625-7.515625v-29.730469c21.816406-13.074219 40.277344-35.492187 55.179687-66.957031zm0-192.375v145.28125h-40.367187c12.320312-41.492188 19.953124-91.105469 22.4375-145.28125zm-55.171875 142.351562c-16.558594 55.058594-41.21875 92.097657-71.316406 107.132813h-18.53125c42.535156-41.808594 55.199218-139.132813 55.789062-143.851563.515625-4.117187-2.40625-7.871093-6.527344-8.386718-4.117187-.515625-7.871093 2.40625-8.386718 6.523437-.039063.316407-4.046875 31.785157-14.742188 65.8125-13.449218 42.800781-31.261718 70.367188-51.578125 79.902344h-17.414062c13.570312-15.71875 24.425781-41.140625 32.386719-75.976563 8.058593-35.257812 10.109374-67.003906 10.195312-68.335937.257812-4.140625-2.890625-7.710937-7.03125-7.96875-4.148438-.253906-7.710938 2.886719-7.96875 7.027344-2.136719 34.007812-15.355469 125.367187-50.496094 145.253906h-6.628906v-281.546875h185.328125c-.5625 65.820312-8.511719 125.992188-23.078125 174.414062zm319.6875-189.445312h-481.9375v-33.0625h481.9375zm0 0" fill="#ffffff" data-original="#000000" style="" class=""/><path xmlns="http://www.w3.org/2000/svg" d="m447.875 87.671875c0-4.152344-3.363281-7.515625-7.515625-7.515625h-168.328125c-4.152344 0-7.515625 3.363281-7.515625 7.515625v160.3125c0 4.148437 3.363281 7.515625 7.515625 7.515625h168.328125c4.152344 0 7.515625-3.367188 7.515625-7.515625zm-15.03125 152.796875h-153.296875v-145.28125h153.296875zm0 0" fill="#ffffff" data-original="#000000" style="" class=""/><path xmlns="http://www.w3.org/2000/svg" d="m440.359375 272.53125h-168.328125c-4.152344 0-7.515625 3.367188-7.515625 7.515625v160.3125c0 4.152344 3.363281 7.515625 7.515625 7.515625h168.328125c4.152344 0 7.515625-3.363281 7.515625-7.515625v-160.3125c0-4.148437-3.363281-7.515625-7.515625-7.515625zm-7.515625 160.3125h-153.296875v-145.28125h153.296875zm0 0" fill="#ffffff" data-original="#000000" style="" class=""/></g></svg>
