<?xml version="1.0"?>
<svg xmlns="http://www.w3.org/2000/svg" xmlns:xlink="http://www.w3.org/1999/xlink" xmlns:svgjs="http://svgjs.com/svgjs" version="1.1" width="512" height="512" x="0" y="0" viewBox="0 0 64 64" style="enable-background:new 0 0 512 512" xml:space="preserve" class=""><g transform="matrix(1.05,0,0,1.05,-1.6000000000000014,-1.6000000000000014)"><path xmlns="http://www.w3.org/2000/svg" d="m61 5h-58c-.553 0-1 .448-1 1v6c0 .552.447 1 1 1h1v38h-1c-.553 0-1 .448-1 1v6c0 .552.447 1 1 1h58c.553 0 1-.448 1-1v-6c0-.552-.447-1-1-1h-1v-38h1c.553 0 1-.448 1-1v-6c0-.552-.447-1-1-1zm-55 33.477 8.316 3.326 1.511 2.518c.462.771 1.274 1.23 2.173 1.23.55 0 1.057-.19 1.482-.5.316.183.667.309 1.041.343.079.007.158.011.236.011.396 0 .773-.098 1.117-.272l5.721-.125 3.698 3.676c.124.123.277.212.446.257l7.672 2.059h-33.413zm8.947-9.509-.996-1.66c-.433-.72-.355-1.633.19-2.271l3.452-4.027c.14-.163.314-.187.406-.187s.267.024.406.187l3.451 4.027c.547.639.624 1.551.191 2.271l-.996 1.66c-.752 1.253-.752 2.81 0 4.063l1.18 1.966c.371.618.371 1.387 0 2.005l-3.231 5.388v-16.39h-2v16.39l-3.232-5.387c-.371-.618-.371-1.387 0-2.005l1.18-1.966c.751-1.254.751-2.81-.001-4.064zm10.419 4.547.845 2.131c.267.67.143 1.428-.323 1.979l-4.743 5.596c-.145.17-.316.189-.42.183l3.223-5.372c.752-1.253.752-2.81 0-4.063l-1.18-1.966c-.371-.618-.371-1.387 0-2.005l.996-1.66c.876-1.459.721-3.308-.388-4.602l-1.097-1.28 1.621-1.364c.164-.138.338-.132.431-.118.09.015.259.067.37.249l2.754 4.533c.437.719.364 1.632-.179 2.272l-1.251 1.477c-.946 1.116-1.198 2.652-.659 4.01zm34.634 23.485h-56v-4h56zm-2-16h-9c-.155 0-.309.036-.447.105l-5.789 2.895h-4.764c-.155 0-.309.036-.447.105l-2 1 .895 1.789 1.788-.894h4.764c.155 0 .309-.036.447-.105l5.789-2.895h8.764v8h-10.869l-14.615-3.921-3.812-3.788c-.191-.191-.45-.299-.725-.291l-4.101.09 3.537-4.173c.944-1.116 1.195-2.653.656-4.009l-.845-2.131c-.267-.67-.143-1.428.324-1.979l1.251-1.477c1.102-1.298 1.247-3.148.362-4.604l-2.754-4.534c-.386-.633-1.025-1.064-1.756-1.184s-1.475.084-2.041.562l-1.635 1.376-1.054-1.229c-.963-1.125-2.885-1.125-3.848 0l-3.453 4.028c-1.107 1.293-1.263 3.143-.387 4.602l.996 1.66c.371.618.371 1.387 0 2.005l-1.18 1.966c-.752 1.253-.752 2.81 0 4.063l.562.937-6.613-2.646v-23.323h52zm2-30h-56v-4h56z" fill="#ffffff" data-original="#000000" style="" class=""/><path xmlns="http://www.w3.org/2000/svg" d="m52 47h2v2h-2z" fill="#ffffff" data-original="#000000" style="" class=""/><path xmlns="http://www.w3.org/2000/svg" d="m8 43h2v2h-2z" fill="#ffffff" data-original="#000000" style="" class=""/><path xmlns="http://www.w3.org/2000/svg" d="m12 48h2v2h-2z" fill="#ffffff" data-original="#000000" style="" class=""/><path xmlns="http://www.w3.org/2000/svg" d="m23 47h2v2h-2z" fill="#ffffff" data-original="#000000" style="" class=""/><path xmlns="http://www.w3.org/2000/svg" d="m37.805 37.989 4.93 1.643c.421.141.852.209 1.278.209.822 0 1.63-.258 2.325-.759 1.057-.76 1.662-1.943 1.662-3.244v-1.892c.254-.245.504-.496.742-.761 1.158 2.258 3.955 3.815 6.447 3.815h1c.36 0 .692-.194.87-.507s.173-.698-.013-1.007l-2.691-4.486 2.691-4.485c.186-.309.19-.694.013-1.007s-.509-.508-.87-.508h-1c-2.492 0-5.288 1.556-6.447 3.812-.237-.265-.488-.515-.743-.761v-1.889c0-1.301-.605-2.484-1.661-3.245-1.058-.761-2.371-.96-3.604-.549l-4.93 1.643c-2.01.056-3.891.958-5.183 2.508-2.164 2.597-2.164 6.366 0 8.963 1.293 1.55 3.174 2.452 5.184 2.507zm10.162-6.988c-1.981 2.658-4.923 4.382-8.171 4.854 1.666-3.065 1.683-6.664.138-9.686 3.188.501 6.072 2.206 8.033 4.832zm-2.798 6.459c-.527.38-1.186.479-1.801.274l-1.159-.386c1.347-.411 2.623-1.007 3.791-1.787v.276c0 .652-.303 1.243-.831 1.623zm9.21-10.386-2.047 3.411c-.19.317-.19.712 0 1.029l2.047 3.411c-2.05-.365-4.189-2.025-4.189-3.926s2.139-3.56 4.189-3.925zm-11.011-2.809c.618-.207 1.273-.106 1.801.274.528.381.831.972.831 1.623v.274c-1.167-.779-2.443-1.374-3.791-1.785zm-9.209 3.534c.843-1.013 2.039-1.64 3.335-1.771 1.898 2.672 2.103 6.16.46 9.036l-.517.905c-1.275-.143-2.448-.769-3.279-1.767-1.545-1.856-1.545-4.548.001-6.403z" fill="#ffffff" data-original="#000000" style="" class=""/><path xmlns="http://www.w3.org/2000/svg" d="m43 20c1.654 0 3-1.346 3-3s-1.346-3-3-3-3 1.346-3 3 1.346 3 3 3zm0-4c.552 0 1 .449 1 1s-.448 1-1 1-1-.449-1-1 .448-1 1-1z" fill="#ffffff" data-original="#000000" style="" class=""/><path xmlns="http://www.w3.org/2000/svg" d="m34 23c1.654 0 3-1.346 3-3s-1.346-3-3-3-3 1.346-3 3 1.346 3 3 3zm0-4c.552 0 1 .449 1 1s-.448 1-1 1-1-.449-1-1 .448-1 1-1z" fill="#ffffff" data-original="#000000" style="" class=""/><ellipse xmlns="http://www.w3.org/2000/svg" cx="36.5" cy="30" rx=".5" ry="1" fill="#ffffff" data-original="#000000" style="" class=""/></g></svg>
