<?xml version="1.0"?>
<svg xmlns="http://www.w3.org/2000/svg" xmlns:xlink="http://www.w3.org/1999/xlink" xmlns:svgjs="http://svgjs.com/svgjs" version="1.1" width="512" height="512" x="0" y="0" viewBox="0 0 512 512" style="enable-background:new 0 0 512 512" xml:space="preserve" class=""><g><path xmlns="http://www.w3.org/2000/svg" d="m256 168a8 8 0 0 1 -8-8v-96a8 8 0 0 1 16 0v96a8 8 0 0 1 -8 8z" fill="#000000" data-original="#6a7073" style="" class=""/><path xmlns="http://www.w3.org/2000/svg" d="m96 264a8 8 0 0 1 -8-8v-192a8 8 0 0 1 16 0v192a8 8 0 0 1 -8 8z" fill="#000000" data-original="#6a7073" style="" class=""/><path xmlns="http://www.w3.org/2000/svg" d="m416 264a8 8 0 0 1 -8-8v-192a8 8 0 0 1 16 0v192a8 8 0 0 1 -8 8z" fill="#000000" data-original="#6a7073" style="" class=""/><path xmlns="http://www.w3.org/2000/svg" d="m416 472a8 8 0 0 1 -8-8v-32a8 8 0 0 1 16 0v32a8 8 0 0 1 -8 8z" fill="#ffb85c" data-original="#d4a811" style="" class=""/><path xmlns="http://www.w3.org/2000/svg" d="m336 440a8 8 0 0 1 -5.657-13.657l24-24a8 8 0 0 1 11.314 11.314l-24 24a7.976 7.976 0 0 1 -5.657 2.343z" fill="#ffb85c" data-original="#d4a811" style="" class=""/><path xmlns="http://www.w3.org/2000/svg" d="m496 440a7.976 7.976 0 0 1 -5.657-2.343l-24-24a8 8 0 0 1 11.314-11.314l24 24a8 8 0 0 1 -5.657 13.657z" fill="#ffb85c" data-original="#d4a811" style="" class=""/><path xmlns="http://www.w3.org/2000/svg" d="m440 280v8h-48v-8a24 24 0 0 1 48 0z" fill="#000000" data-original="#9aa3a8" style="" class=""/><path xmlns="http://www.w3.org/2000/svg" d="m440 310.42v-22.42h-48v22.42a48 48 0 1 0 48 0z" fill="#ffb85c" data-original="#f2c837" style="" class=""/><g xmlns="http://www.w3.org/2000/svg" fill="#d4a811"><path d="m96 472a8 8 0 0 1 -8-8v-32a8 8 0 0 1 16 0v32a8 8 0 0 1 -8 8z" fill="#ffb85c" data-original="#d4a811" style="" class=""/><path d="m16 440a8 8 0 0 1 -5.657-13.657l24-24a8 8 0 0 1 11.314 11.314l-24 24a7.976 7.976 0 0 1 -5.657 2.343z" fill="#ffb85c" data-original="#d4a811" style="" class=""/><path d="m176 440a7.976 7.976 0 0 1 -5.657-2.343l-24-24a8 8 0 0 1 11.314-11.314l24 24a8 8 0 0 1 -5.657 13.657z" fill="#ffb85c" data-original="#d4a811" style="" class=""/><path d="m256 368a8 8 0 0 1 -8-8v-32a8 8 0 0 1 16 0v32a8 8 0 0 1 -8 8z" fill="#ffb85c" data-original="#d4a811" style="" class=""/><path d="m176 336a8 8 0 0 1 -5.657-13.657l24-24a8 8 0 1 1 11.314 11.314l-24 24a7.976 7.976 0 0 1 -5.657 2.343z" fill="#ffb85c" data-original="#d4a811" style="" class=""/><path d="m336 336a7.976 7.976 0 0 1 -5.657-2.343l-24-24a8 8 0 0 1 11.314-11.314l24 24a8 8 0 0 1 -5.657 13.657z" fill="#ffb85c" data-original="#d4a811" style="" class=""/></g><path xmlns="http://www.w3.org/2000/svg" d="m120 280v8h-48v-8a24 24 0 0 1 48 0z" fill="#000000" data-original="#9aa3a8" style="" class=""/><path xmlns="http://www.w3.org/2000/svg" d="m120 310.42v-22.42h-48v22.42a48 48 0 1 0 48 0z" fill="#ffb85c" data-original="#f2c837" style="" class=""/><path xmlns="http://www.w3.org/2000/svg" d="m280 176v8h-48v-8a24 24 0 0 1 48 0z" fill="#000000" data-original="#9aa3a8" style="" class=""/><path xmlns="http://www.w3.org/2000/svg" d="m280 206.42v-22.42h-48v22.42a48 48 0 1 0 48 0z" fill="#ffb85c" data-original="#f2c837" style="" class=""/><path xmlns="http://www.w3.org/2000/svg" d="m24 40h464v32h-464z" fill="#000000" data-original="#9aa3a8" style="" class=""/></g></svg>
