<?xml version="1.0"?>
<svg xmlns="http://www.w3.org/2000/svg" xmlns:xlink="http://www.w3.org/1999/xlink" xmlns:svgjs="http://svgjs.com/svgjs" version="1.1" width="512" height="512" x="0" y="0" viewBox="0 0 512 512" style="enable-background:new 0 0 512 512" xml:space="preserve" class=""><g><path xmlns="http://www.w3.org/2000/svg" d="M488,80a8,8,0,0,0,8-8V40a8,8,0,0,0-8-8H24a8,8,0,0,0-8,8V72a8,8,0,0,0,8,8H88V257.013A32.057,32.057,0,0,0,64,288v26.039a56,56,0,1,0,64,0V288a32.022,32.022,0,0,0-24-30.991V80H248v73.012A32.059,32.059,0,0,0,224,184v26.039a56,56,0,1,0,64,0V184a32.022,32.022,0,0,0-24-30.991V80H408V257.013A32.057,32.057,0,0,0,384,288v26.039a56,56,0,1,0,64,0V288a32.022,32.022,0,0,0-24-30.991V80ZM136,360a40,40,0,1,1-59.993-34.656A8,8,0,0,0,80,318.42V312h32v6.42a8,8,0,0,0,3.993,6.924A40.173,40.173,0,0,1,136,360Zm-24-72v8H80v-8a16,16,0,0,1,32,0Zm184-32a40,40,0,1,1-59.993-34.656A8,8,0,0,0,240,214.42V200h32v14.42a8,8,0,0,0,3.993,6.924A40.173,40.173,0,0,1,296,256Zm-24-72H240a16,16,0,0,1,32,0ZM456,360a40,40,0,1,1-59.993-34.656A8,8,0,0,0,400,318.42V304h32v14.42a8,8,0,0,0,3.993,6.924A40.173,40.173,0,0,1,456,360Zm-24-72H400a16,16,0,0,1,32,0ZM32,48H480V64H32Z" fill="#ffffff" data-original="#000000" style="" class=""/><path xmlns="http://www.w3.org/2000/svg" d="M424,472V440a8,8,0,0,0-16,0v32a8,8,0,0,0,16,0Z" fill="#ffffff" data-original="#000000" style="" class=""/><path xmlns="http://www.w3.org/2000/svg" d="M365.657,410.343a8,8,0,0,0-11.314,0l-24,24a8,8,0,0,0,11.314,11.314l24-24A8,8,0,0,0,365.657,410.343Z" fill="#ffffff" data-original="#000000" style="" class=""/><path xmlns="http://www.w3.org/2000/svg" d="M477.657,410.343a8,8,0,0,0-11.314,11.314l24,24a8,8,0,0,0,11.314-11.314Z" fill="#ffffff" data-original="#000000" style="" class=""/><path xmlns="http://www.w3.org/2000/svg" d="M104,480V448a8,8,0,0,0-16,0v32a8,8,0,0,0,16,0Z" fill="#ffffff" data-original="#000000" style="" class=""/><path xmlns="http://www.w3.org/2000/svg" d="M45.657,429.657a8,8,0,0,0-11.314-11.315l-24,24a8,8,0,0,0,11.314,11.315Z" fill="#ffffff" data-original="#000000" style="" class=""/><path xmlns="http://www.w3.org/2000/svg" d="M146.343,418.342a8,8,0,0,0,0,11.315l24,24a8,8,0,1,0,11.314-11.315l-24-24A8,8,0,0,0,146.343,418.342Z" fill="#ffffff" data-original="#000000" style="" class=""/><path xmlns="http://www.w3.org/2000/svg" d="M256,328a8,8,0,0,0-8,8v32a8,8,0,0,0,16,0V336A8,8,0,0,0,256,328Z" fill="#ffffff" data-original="#000000" style="" class=""/><path xmlns="http://www.w3.org/2000/svg" d="M194.343,306.343l-24,24a8,8,0,0,0,11.314,11.314l24-24a8,8,0,1,0-11.314-11.314Z" fill="#ffffff" data-original="#000000" style="" class=""/><path xmlns="http://www.w3.org/2000/svg" d="M317.657,306.343a8,8,0,0,0-11.314,11.314l24,24a8,8,0,0,0,11.314-11.314Z" fill="#ffffff" data-original="#000000" style="" class=""/></g></svg>
