<?xml version="1.0"?>
<svg xmlns="http://www.w3.org/2000/svg" xmlns:xlink="http://www.w3.org/1999/xlink" xmlns:svgjs="http://svgjs.com/svgjs" version="1.1" width="512" height="512" x="0" y="0" viewBox="0 0 512 512" style="enable-background:new 0 0 512 512" xml:space="preserve" class=""><g><path xmlns="http://www.w3.org/2000/svg" d="m262 16a6 6 0 0 0 -12 0v126.178h12z" fill="#ffb85c" data-original="#000000" style="" class=""/><path xmlns="http://www.w3.org/2000/svg" d="m256 449.508a6 6 0 0 0 -6 6v40.492a6 6 0 0 0 12 0v-40.492a6 6 0 0 0 -6-6z" fill="#ffb85c" data-original="#000000" style="" class=""/><path xmlns="http://www.w3.org/2000/svg" d="m311.908 431.563a6 6 0 0 0 -8.561 8.41l28.344 28.851a6 6 0 0 0 8.561-8.41z" fill="#ffb85c" data-original="#000000" style="" class=""/><path xmlns="http://www.w3.org/2000/svg" d="m200.092 431.563-28.344 28.851a6 6 0 0 0 8.561 8.41l28.344-28.851a6 6 0 0 0 -8.561-8.41z" fill="#ffb85c" data-original="#000000" style="" class=""/><path xmlns="http://www.w3.org/2000/svg" d="m256 148.178a19.851 19.851 0 0 0 -19.18 14.868h38.36a19.851 19.851 0 0 0 -19.18-14.868z" fill="#ffb85c" data-original="#000000" style="" class=""/><path xmlns="http://www.w3.org/2000/svg" d="m275.835 186.47v-11.424h-39.67v11.424a168.288 168.288 0 0 1 39.67 0z" fill="#ffb85c" data-original="#000000" style="" class=""/><path xmlns="http://www.w3.org/2000/svg" d="m256 197.3c-84.274 0-153.2 66.96-156.361 150.474h312.722c-3.161-83.517-72.087-150.474-156.361-150.474zm-62.359 49.337a156.781 156.781 0 0 0 -42.677 44.736 6 6 0 0 1 -10.141-6.417 168.731 168.731 0 0 1 45.927-48.146 6 6 0 0 1 6.891 9.824z" fill="#ffb85c" data-original="#000000" style="" class=""/><path xmlns="http://www.w3.org/2000/svg" d="m213.41 363.9a41.072 41.072 0 1 0 82.144 0v-4.124h-82.144z" fill="#ffb85c" data-original="#000000" style="" class=""/></g></svg>
