<?xml version="1.0"?>
<svg xmlns="http://www.w3.org/2000/svg" xmlns:xlink="http://www.w3.org/1999/xlink" xmlns:svgjs="http://svgjs.com/svgjs" version="1.1" width="512" height="512" x="0" y="0" viewBox="0 0 512 512" style="enable-background:new 0 0 512 512" xml:space="preserve" class=""><g>
<g xmlns="http://www.w3.org/2000/svg">
	<path style="" d="M240.472,130.24L240.472,130.24L240.472,130.24L144.11,33.895   c-6.651-6.651-17.433-6.66-24.084-0.017c-0.009,0.009-0.009,0.009-0.017,0.017l-19.502,19.502v82.864H66.441V87.462L23.69,130.214   c-6.66,6.651-6.66,17.433-0.017,24.084c0.009,0.009,0.009,0.009,0.017,0.017l96.319,96.405l0,0l0,0L240.472,130.24z" fill="#ffb85c" data-original="#ffaf46" class=""/>
	<polygon style="" points="240.489,130.24 120.035,250.694 156.169,359.073 218.492,296.742 286.537,228.697    348.868,166.374  " fill="#ffb85c" data-original="#ffaf46" class=""/>
</g>
<g xmlns="http://www.w3.org/2000/svg">
	<polygon style="" points="240.472,130.24 120.035,250.677 120.035,250.694 240.489,130.24  " fill="#ffb85c" data-original="#ffda44" class=""/>
	<path style="" d="M276.607,286.812c15.321-15.295,19.306-38.604,9.93-58.115l-68.045,68.045   C238.002,306.118,261.311,302.133,276.607,286.812z" fill="#ffb85c" data-original="#ffda44" class=""/>
</g>
<polygon xmlns="http://www.w3.org/2000/svg" style="" points="100.507,136.261 100.507,53.397 100.507,8.516 66.441,8.516 66.441,87.462 66.441,136.261   " fill="#ffffff" data-original="#8b5e3c" class=""/>
<g xmlns="http://www.w3.org/2000/svg">
	<path style="" d="M427.149,445.871c-2.257,0-4.428-0.894-6.021-2.495L312.733,334.98   c-3.27-3.381-3.177-8.772,0.204-12.042c3.304-3.185,8.533-3.185,11.838,0L433.17,431.334c3.321,3.33,3.321,8.721,0,12.042   C431.569,444.977,429.406,445.871,427.149,445.871z" fill="#ffffff" data-original="#231f20" class=""/>
	<path style="" d="M345.197,247.279c-4.701-0.009-8.508-3.824-8.499-8.533c0.009-3.849,2.597-7.222,6.311-8.21   l148.064-39.669c4.548-1.218,9.215,1.473,10.432,6.021c1.218,4.548-1.473,9.215-6.021,10.432l-148.073,39.652   C346.687,247.169,345.946,247.271,345.197,247.279z" fill="#ffffff" data-original="#231f20" class=""/>
	<path style="" d="M180.381,512c-0.749,0-1.49-0.094-2.214-0.29c-4.539-1.218-7.239-5.885-6.021-10.432l0,0   l39.669-148.064c1.414-4.488,6.2-6.975,10.688-5.553c4.207,1.329,6.702,5.655,5.749,9.956l-39.652,148.073   C187.603,509.411,184.23,512,180.381,512z" fill="#ffffff" data-original="#231f20" class=""/>
	<path style="" d="M432.906,320.213c-0.749,0-1.49-0.094-2.214-0.29l-98.704-26.46   c-4.539-1.235-7.213-5.919-5.978-10.458c1.226-4.505,5.859-7.179,10.381-5.995l98.712,26.426c4.548,1.218,7.239,5.885,6.021,10.432   c-0.996,3.722-4.369,6.311-8.218,6.311L432.906,320.213z" fill="#ffffff" data-original="#231f20" class=""/>
	<path style="" d="M301.491,451.619c-3.849,0-7.222-2.589-8.218-6.311l-26.503-98.695   c-1.192-4.548,1.524-9.206,6.072-10.398c4.522-1.184,9.147,1.49,10.381,5.995l26.46,98.704c1.226,4.539-1.465,9.215-6.004,10.441   c-0.009,0-0.017,0.009-0.026,0.009C302.948,451.543,302.215,451.628,301.491,451.619z" fill="#ffffff" data-original="#231f20" class=""/>
	<path style="" d="M357.162,164.416c-0.681-2.879-2.802-5.195-5.604-6.123l-106.377-35.453l-95.05-94.965   c-9.99-9.956-26.154-9.956-36.143,0l-4.965,4.965V8.516c0-4.701-3.815-8.516-8.516-8.516H66.441c-4.701,0-8.516,3.815-8.516,8.516   v75.42l-40.257,40.257c-9.956,9.99-9.956,26.154,0,36.143l94.965,95.05l35.453,106.377c0.928,2.802,3.245,4.922,6.123,5.604   c0.639,0.145,1.294,0.221,1.95,0.221c2.257,0,4.428-0.894,6.021-2.495l58.311-58.311c6.413,2.325,13.175,3.517,19.996,3.526   c32.822,0.026,59.452-26.562,59.478-59.393c0.009-6.864-1.175-13.669-3.492-20.124l58.413-58.413   C356.975,170.292,357.827,167.286,357.162,164.416z M270.586,280.791c-9.487,9.453-22.858,13.916-36.126,12.051l48.177-48.177   C284.527,257.933,280.064,271.312,270.586,280.791z M74.958,17.033H91.99v110.712H74.958V17.033z M29.711,136.261l28.215-28.24   v28.24c0,4.701,3.815,8.516,8.516,8.516h34.065c4.701,0,8.516-3.815,8.516-8.516V56.923l17.033-17.033   c3.321-3.33,8.712-3.338,12.042-0.017c0.009,0.009,0.009,0.009,0.017,0.017l90.375,90.273L120,238.669l-90.29-90.375   C26.389,144.973,26.389,139.582,29.711,136.261z M159.891,343.309l-30.105-90.273l113.003-113.045l90.273,30.105L159.891,343.309z" fill="#ffffff" data-original="#231f20" class=""/>
</g>
<g xmlns="http://www.w3.org/2000/svg">
</g>
<g xmlns="http://www.w3.org/2000/svg">
</g>
<g xmlns="http://www.w3.org/2000/svg">
</g>
<g xmlns="http://www.w3.org/2000/svg">
</g>
<g xmlns="http://www.w3.org/2000/svg">
</g>
<g xmlns="http://www.w3.org/2000/svg">
</g>
<g xmlns="http://www.w3.org/2000/svg">
</g>
<g xmlns="http://www.w3.org/2000/svg">
</g>
<g xmlns="http://www.w3.org/2000/svg">
</g>
<g xmlns="http://www.w3.org/2000/svg">
</g>
<g xmlns="http://www.w3.org/2000/svg">
</g>
<g xmlns="http://www.w3.org/2000/svg">
</g>
<g xmlns="http://www.w3.org/2000/svg">
</g>
<g xmlns="http://www.w3.org/2000/svg">
</g>
<g xmlns="http://www.w3.org/2000/svg">
</g>
</g></svg>
