<?xml version="1.0"?>
<svg xmlns="http://www.w3.org/2000/svg" xmlns:xlink="http://www.w3.org/1999/xlink" xmlns:svgjs="http://svgjs.com/svgjs" version="1.1" width="512" height="512" x="0" y="0" viewBox="0 0 480.96 480.96" style="enable-background:new 0 0 512 512" xml:space="preserve" class=""><g>
<g xmlns="http://www.w3.org/2000/svg">
	<g>
		<g>
			<path d="M281.785,235.707c0.005-6.445-1.106-12.842-3.283-18.907l54.872-54.872c3.121-3.127,3.117-8.192-0.01-11.314     c-0.876-0.875-1.944-1.534-3.118-1.926l-99.928-33.296L141.03,26.184c-9.385-9.353-24.567-9.353-33.952,0l-4.664,4.664V8     c0-4.418-3.582-8-8-8h-32c-4.418,0-8,3.582-8,8v70.848l-37.816,37.816c-9.353,9.385-9.353,24.567,0,33.952l89.208,89.288     l33.304,99.928c0.875,2.634,3.052,4.626,5.752,5.264c0.601,0.136,1.216,0.206,1.832,0.208c2.122,0,4.156-0.844,5.656-2.344     l54.776-54.776c6.023,2.182,12.378,3.302,18.784,3.312C256.745,291.52,281.761,266.543,281.785,235.707z M70.414,16h16v104h-16     V16z M27.91,139.304c-3.118-3.123-3.118-8.181,0-11.304l26.504-26.528V128c0,4.418,3.582,8,8,8h32c4.418,0,8-3.582,8-8V53.472     l16-16c3.12-3.128,8.186-3.135,11.314-0.014c0.005,0.005,0.01,0.01,0.014,0.014l84.896,84.8L112.726,224.2L27.91,139.304z      M150.198,322.496l-28.28-84.8L228.07,131.504l84.8,28.28L150.198,322.496z M231.562,275.088c-3.753,0.536-7.563,0.536-11.316,0     l45.256-45.256C268.627,251.701,253.432,271.963,231.562,275.088z" fill="#ffffff" data-original="#000000" style="" class=""/>
			<path d="M406.91,405.184L305.086,303.36c-3.178-3.07-8.242-2.982-11.312,0.196c-2.995,3.1-2.995,8.016,0,11.116l101.824,101.824     c3.07,3.178,8.134,3.266,11.312,0.196c3.178-3.07,3.266-8.134,0.196-11.312C407.042,405.313,406.976,405.248,406.91,405.184z" fill="#ffffff" data-original="#000000" style="" class=""/>
			<path d="M471.102,184.954c0-0.001,0-0.001,0-0.002c-1.144-4.268-5.53-6.8-9.798-5.656c-0.001,0-0.001,0-0.002,0L322.214,216.56     c-4.268,1.142-6.802,5.528-5.66,9.796c0.935,3.494,4.099,5.926,7.716,5.932c0.702,0,1.401-0.092,2.08-0.272l139.096-37.264     C469.714,193.608,472.246,189.221,471.102,184.954z" fill="#ffffff" data-original="#000000" style="" class=""/>
			<path d="M208.814,326.144c-4.267-1.145-8.655,1.387-9.8,5.654c0,0.001,0,0.001,0,0.002L161.71,470.888     c-1.145,4.267,1.387,8.655,5.654,9.799c0.001,0,0.001,0,0.002,0c0.679,0.18,1.378,0.272,2.08,0.272     c3.618-0.003,6.783-2.434,7.72-5.928l37.248-139.096C215.558,331.687,213.056,327.313,208.814,326.144z" fill="#ffffff" data-original="#000000" style="" class=""/>
			<path d="M408.742,285.04h-0.016l-92.712-24.856c-4.274-1.122-8.647,1.433-9.769,5.707c-1.114,4.245,1.399,8.594,5.633,9.749     l92.72,24.856c0.679,0.18,1.378,0.272,2.08,0.272c4.418-0.002,7.998-3.586,7.996-8.004     C414.672,289.144,412.239,285.976,408.742,285.04z" fill="#ffffff" data-original="#000000" style="" class=""/>
			<path d="M290.91,414.2l-24.856-92.752c-1.163-4.263-5.56-6.776-9.823-5.613c-4.234,1.155-6.747,5.504-5.633,9.749l24.856,92.728     c0.937,3.494,4.102,5.925,7.72,5.928c0.698,0.015,1.395-0.066,2.072-0.24c4.269-1.14,6.805-5.524,5.666-9.793     C290.911,414.205,290.911,414.202,290.91,414.2z" fill="#ffffff" data-original="#000000" style="" class=""/>
		</g>
	</g>
</g>
<g xmlns="http://www.w3.org/2000/svg">
</g>
<g xmlns="http://www.w3.org/2000/svg">
</g>
<g xmlns="http://www.w3.org/2000/svg">
</g>
<g xmlns="http://www.w3.org/2000/svg">
</g>
<g xmlns="http://www.w3.org/2000/svg">
</g>
<g xmlns="http://www.w3.org/2000/svg">
</g>
<g xmlns="http://www.w3.org/2000/svg">
</g>
<g xmlns="http://www.w3.org/2000/svg">
</g>
<g xmlns="http://www.w3.org/2000/svg">
</g>
<g xmlns="http://www.w3.org/2000/svg">
</g>
<g xmlns="http://www.w3.org/2000/svg">
</g>
<g xmlns="http://www.w3.org/2000/svg">
</g>
<g xmlns="http://www.w3.org/2000/svg">
</g>
<g xmlns="http://www.w3.org/2000/svg">
</g>
<g xmlns="http://www.w3.org/2000/svg">
</g>
</g></svg>
